<?xml version="1.0" encoding="UTF-8"?>
<svg xmlns="http://www.w3.org/2000/svg" xmlns:xlink="http://www.w3.org/1999/xlink" width="42px" height="42px" viewBox="0 0 42 42" version="1.1">
<g id="surface1">
<path style=" stroke:none;fill-rule:evenodd;fill:rgb(0%,0%,0%);fill-opacity:1;" d="M 0.328125 7 L 6.671875 7 C 6.851562 7 7 7.148438 7 7.328125 L 7 13.671875 C 7 13.851562 6.851562 14 6.671875 14 L 0.328125 14 C 0.148438 14 0 13.851562 0 13.671875 L 0 7.328125 C 0 7.148438 0.148438 7 0.328125 7 Z M 0.328125 7 "/>
<path style=" stroke:none;fill-rule:evenodd;fill:rgb(0%,0%,0%);fill-opacity:1;" d="M 0.328125 21 L 6.671875 21 C 6.851562 21 7 21.148438 7 21.328125 L 7 27.671875 C 7 27.851562 6.851562 28 6.671875 28 L 0.328125 28 C 0.148438 28 0 27.851562 0 27.671875 L 0 21.328125 C 0 21.148438 0.148438 21 0.328125 21 Z M 0.328125 21 "/>
<path style=" stroke:none;fill-rule:evenodd;fill:rgb(0%,0%,0%);fill-opacity:1;" d="M 0.328125 35 L 6.671875 35 C 6.851562 35 7 35.148438 7 35.328125 L 7 41.671875 C 7 41.851562 6.851562 42 6.671875 42 L 0.328125 42 C 0.148438 42 0 41.851562 0 41.671875 L 0 35.328125 C 0 35.148438 0.148438 35 0.328125 35 Z M 0.328125 35 "/>
<path style=" stroke:none;fill-rule:evenodd;fill:rgb(0%,0%,0%);fill-opacity:1;" d="M 7.328125 0 L 13.671875 0 C 13.851562 0 14 0.148438 14 0.328125 L 14 6.671875 C 14 6.851562 13.851562 7 13.671875 7 L 7.328125 7 C 7.148438 7 7 6.851562 7 6.671875 L 7 0.328125 C 7 0.148438 7.148438 0 7.328125 0 Z M 7.328125 0 "/>
<path style=" stroke:none;fill-rule:evenodd;fill:rgb(0%,0%,0%);fill-opacity:1;" d="M 7.328125 14 L 13.671875 14 C 13.851562 14 14 14.148438 14 14.328125 L 14 20.671875 C 14 20.851562 13.851562 21 13.671875 21 L 7.328125 21 C 7.148438 21 7 20.851562 7 20.671875 L 7 14.328125 C 7 14.148438 7.148438 14 7.328125 14 Z M 7.328125 14 "/>
<path style=" stroke:none;fill-rule:evenodd;fill:rgb(0%,0%,0%);fill-opacity:1;" d="M 7.328125 28 L 13.671875 28 C 13.851562 28 14 28.148438 14 28.328125 L 14 34.671875 C 14 34.851562 13.851562 35 13.671875 35 L 7.328125 35 C 7.148438 35 7 34.851562 7 34.671875 L 7 28.328125 C 7 28.148438 7.148438 28 7.328125 28 Z M 7.328125 28 "/>
<path style=" stroke:none;fill-rule:evenodd;fill:rgb(0%,0%,0%);fill-opacity:1;" d="M 14.328125 7 L 20.671875 7 C 20.851562 7 21 7.148438 21 7.328125 L 21 13.671875 C 21 13.851562 20.851562 14 20.671875 14 L 14.328125 14 C 14.148438 14 14 13.851562 14 13.671875 L 14 7.328125 C 14 7.148438 14.148438 7 14.328125 7 Z M 14.328125 7 "/>
<path style=" stroke:none;fill-rule:evenodd;fill:rgb(0%,0%,0%);fill-opacity:1;" d="M 14.328125 21 L 20.671875 21 C 20.851562 21 21 21.148438 21 21.328125 L 21 27.671875 C 21 27.851562 20.851562 28 20.671875 28 L 14.328125 28 C 14.148438 28 14 27.851562 14 27.671875 L 14 21.328125 C 14 21.148438 14.148438 21 14.328125 21 Z M 14.328125 21 "/>
<path style=" stroke:none;fill-rule:evenodd;fill:rgb(0%,0%,0%);fill-opacity:1;" d="M 14.328125 35 L 20.671875 35 C 20.851562 35 21 35.148438 21 35.328125 L 21 41.671875 C 21 41.851562 20.851562 42 20.671875 42 L 14.328125 42 C 14.148438 42 14 41.851562 14 41.671875 L 14 35.328125 C 14 35.148438 14.148438 35 14.328125 35 Z M 14.328125 35 "/>
<path style=" stroke:none;fill-rule:evenodd;fill:rgb(0%,0%,0%);fill-opacity:1;" d="M 21.328125 0 L 27.671875 0 C 27.851562 0 28 0.148438 28 0.328125 L 28 6.671875 C 28 6.851562 27.851562 7 27.671875 7 L 21.328125 7 C 21.148438 7 21 6.851562 21 6.671875 L 21 0.328125 C 21 0.148438 21.148438 0 21.328125 0 Z M 21.328125 0 "/>
<path style=" stroke:none;fill-rule:evenodd;fill:rgb(0%,0%,0%);fill-opacity:1;" d="M 21.328125 14 L 27.671875 14 C 27.851562 14 28 14.148438 28 14.328125 L 28 20.671875 C 28 20.851562 27.851562 21 27.671875 21 L 21.328125 21 C 21.148438 21 21 20.851562 21 20.671875 L 21 14.328125 C 21 14.148438 21.148438 14 21.328125 14 Z M 21.328125 14 "/>
<path style=" stroke:none;fill-rule:evenodd;fill:rgb(0%,0%,0%);fill-opacity:1;" d="M 21.328125 28 L 27.671875 28 C 27.851562 28 28 28.148438 28 28.328125 L 28 34.671875 C 28 34.851562 27.851562 35 27.671875 35 L 21.328125 35 C 21.148438 35 21 34.851562 21 34.671875 L 21 28.328125 C 21 28.148438 21.148438 28 21.328125 28 Z M 21.328125 28 "/>
<path style=" stroke:none;fill-rule:evenodd;fill:rgb(0%,0%,0%);fill-opacity:1;" d="M 28.328125 7 L 34.671875 7 C 34.851562 7 35 7.148438 35 7.328125 L 35 13.671875 C 35 13.851562 34.851562 14 34.671875 14 L 28.328125 14 C 28.148438 14 28 13.851562 28 13.671875 L 28 7.328125 C 28 7.148438 28.148438 7 28.328125 7 Z M 28.328125 7 "/>
<path style=" stroke:none;fill-rule:evenodd;fill:rgb(0%,0%,0%);fill-opacity:1;" d="M 28.328125 21 L 34.671875 21 C 34.851562 21 35 21.148438 35 21.328125 L 35 27.671875 C 35 27.851562 34.851562 28 34.671875 28 L 28.328125 28 C 28.148438 28 28 27.851562 28 27.671875 L 28 21.328125 C 28 21.148438 28.148438 21 28.328125 21 Z M 28.328125 21 "/>
<path style=" stroke:none;fill-rule:evenodd;fill:rgb(0%,0%,0%);fill-opacity:1;" d="M 28.328125 35 L 34.671875 35 C 34.851562 35 35 35.148438 35 35.328125 L 35 41.671875 C 35 41.851562 34.851562 42 34.671875 42 L 28.328125 42 C 28.148438 42 28 41.851562 28 41.671875 L 28 35.328125 C 28 35.148438 28.148438 35 28.328125 35 Z M 28.328125 35 "/>
<path style=" stroke:none;fill-rule:evenodd;fill:rgb(0%,0%,0%);fill-opacity:1;" d="M 35.328125 0 L 41.671875 0 C 41.851562 0 42 0.148438 42 0.328125 L 42 6.671875 C 42 6.851562 41.851562 7 41.671875 7 L 35.328125 7 C 35.148438 7 35 6.851562 35 6.671875 L 35 0.328125 C 35 0.148438 35.148438 0 35.328125 0 Z M 35.328125 0 "/>
<path style=" stroke:none;fill-rule:evenodd;fill:rgb(0%,0%,0%);fill-opacity:1;" d="M 35.328125 14 L 41.671875 14 C 41.851562 14 42 14.148438 42 14.328125 L 42 20.671875 C 42 20.851562 41.851562 21 41.671875 21 L 35.328125 21 C 35.148438 21 35 20.851562 35 20.671875 L 35 14.328125 C 35 14.148438 35.148438 14 35.328125 14 Z M 35.328125 14 "/>
<path style=" stroke:none;fill-rule:evenodd;fill:rgb(0%,0%,0%);fill-opacity:1;" d="M 35.328125 28 L 41.671875 28 C 41.851562 28 42 28.148438 42 28.328125 L 42 34.671875 C 42 34.851562 41.851562 35 41.671875 35 L 35.328125 35 C 35.148438 35 35 34.851562 35 34.671875 L 35 28.328125 C 35 28.148438 35.148438 28 35.328125 28 Z M 35.328125 28 "/>
<path style="fill-rule:nonzero;fill:rgb(0%,0%,0%);fill-opacity:1;stroke-width:1.693333;stroke-linecap:butt;stroke-linejoin:miter;stroke:rgb(0%,0%,0%);stroke-opacity:1;stroke-miterlimit:4;" d="M 1092.187507 1198.497667 L 1094.714998 1198.497667 L 1094.714998 1215.378357 C 1094.714998 1217.979644 1094.512061 1219.787631 1094.106186 1220.802317 C 1093.700312 1221.817003 1093.036153 1222.628752 1092.095262 1223.237564 C 1091.154371 1223.846376 1090.010543 1224.141557 1088.682227 1224.141557 C 1087.66754 1224.141557 1086.671303 1223.957069 1085.693514 1223.551194 C 1084.715726 1223.163769 1083.627244 1222.481162 1082.428069 1221.484924 L 1083.756386 1219.510898 C 1085.066254 1220.414891 1086.136286 1221.060601 1087.003382 1221.448026 C 1087.575296 1221.687861 1088.128761 1221.817003 1088.682227 1221.817003 C 1089.383283 1221.817003 1090.028992 1221.595617 1090.619355 1221.171294 C 1091.209718 1220.74697 1091.615593 1220.175056 1091.855427 1219.455551 C 1092.076814 1218.736047 1092.187507 1217.352383 1092.187507 1215.304562 Z M 1092.187507 1198.497667 " transform="matrix(0.211734,0,0,0.211734,-226.987774,-224.977734)"/>
<path style="fill-rule:nonzero;fill:rgb(100%,100%,100%);fill-opacity:1;stroke-width:1.693333;stroke-linecap:butt;stroke-linejoin:miter;stroke:rgb(100%,100%,100%);stroke-opacity:1;stroke-miterlimit:4;" d="M 1122.019284 1198.811297 L 1133.678953 1223.827927 L 1131.003871 1223.827927 L 1127.074267 1215.599743 L 1116.281694 1215.599743 L 1112.37054 1223.827927 L 1109.584765 1223.827927 L 1121.410473 1198.811297 Z M 1121.705654 1204.106115 L 1117.407074 1213.182945 L 1125.967337 1213.182945 Z M 1121.705654 1204.106115 " transform="matrix(0.211734,0,0,0.211734,-226.987774,-224.977734)"/>
<path style="fill-rule:nonzero;fill:rgb(0%,0%,0%);fill-opacity:1;stroke-width:1.693333;stroke-linecap:butt;stroke-linejoin:miter;stroke:rgb(0%,0%,0%);stroke-opacity:1;stroke-miterlimit:4;" d="M 1163.566077 1220.43334 L 1167.274294 1225.137795 L 1164.193338 1225.137795 L 1161.647397 1221.909247 C 1159.599576 1223.163769 1157.293471 1223.791029 1154.729082 1223.791029 C 1151.020864 1223.791029 1147.90301 1222.518059 1145.338621 1219.972119 C 1142.792681 1217.444628 1141.519711 1214.363671 1141.519711 1210.766147 C 1141.519711 1208.349348 1142.091625 1206.117039 1143.272351 1204.069217 C 1144.434628 1202.002947 1146.021228 1200.397897 1148.032152 1199.23562 C 1150.061524 1198.091792 1152.256937 1197.501429 1154.673735 1197.501429 C 1158.381952 1197.501429 1161.499807 1198.774399 1164.045747 1201.301891 C 1166.591687 1203.847831 1167.864657 1206.965685 1167.864657 1210.655454 C 1167.864657 1212.592582 1167.514129 1214.345222 1166.813073 1215.950271 C 1166.130466 1217.555321 1165.041984 1219.049677 1163.566077 1220.43334 Z M 1162.016374 1218.477763 C 1164.193338 1216.356146 1165.281819 1213.754859 1165.281819 1210.637005 C 1165.281819 1208.662979 1164.820598 1206.854992 1163.898156 1205.249943 C 1162.975714 1203.644894 1161.665846 1202.371924 1159.987002 1201.394135 C 1158.308157 1200.434795 1156.537068 1199.955125 1154.692184 1199.955125 C 1152.810402 1199.955125 1151.057762 1200.434795 1149.397366 1201.394135 C 1147.73697 1202.353475 1146.445551 1203.644894 1145.523109 1205.286841 C 1144.582218 1206.928788 1144.120997 1208.755223 1144.120997 1210.766147 C 1144.120997 1213.73641 1145.154132 1216.245453 1147.201954 1218.293274 C 1149.249775 1220.341096 1151.72192 1221.355782 1154.636837 1221.355782 C 1156.610863 1221.355782 1158.437299 1220.876112 1160.079246 1219.916772 L 1154.489247 1212.832417 L 1157.533306 1212.832417 Z M 1162.016374 1218.477763 " transform="matrix(0.211734,0,0,0.211734,-226.987774,-224.977734)"/>
<path style="fill-rule:nonzero;fill:rgb(100%,100%,100%);fill-opacity:1;stroke-width:1.693333;stroke-linecap:butt;stroke-linejoin:miter;stroke:rgb(100%,100%,100%);stroke-opacity:1;stroke-miterlimit:4;" d="M 1179.468979 1198.497667 L 1181.959573 1198.497667 L 1181.959573 1213.607268 C 1181.959573 1215.396806 1181.99647 1216.503737 1182.070266 1216.946509 C 1182.199407 1217.942746 1182.47614 1218.754495 1182.937361 1219.418654 C 1183.398582 1220.082812 1184.081189 1220.636277 1185.02208 1221.097498 C 1185.962971 1221.540271 1186.922311 1221.761657 1187.863202 1221.761657 C 1188.6934 1221.761657 1189.4867 1221.595617 1190.261552 1221.245089 C 1191.017954 1220.894561 1191.645215 1220.396442 1192.161782 1219.769182 C 1192.659901 1219.141921 1193.047327 1218.403967 1193.287162 1217.518423 C 1193.453201 1216.872713 1193.545445 1215.581295 1193.545445 1213.607268 L 1193.545445 1198.497667 L 1196.036039 1198.497667 L 1196.036039 1213.607268 C 1196.036039 1215.839578 1195.814653 1217.647565 1195.39033 1219.012779 C 1194.947557 1220.396442 1194.080462 1221.595617 1192.770594 1222.610303 C 1191.460726 1223.643439 1189.874126 1224.141557 1188.010793 1224.141557 C 1185.98142 1224.141557 1184.265678 1223.661887 1182.826668 1222.702548 C 1181.36921 1221.743208 1180.40987 1220.451789 1179.9302 1218.865188 C 1179.61657 1217.905849 1179.468979 1216.13476 1179.468979 1213.607268 Z M 1179.468979 1198.497667 " transform="matrix(0.211734,0,0,0.211734,-226.987774,-224.977734)"/>
<path style="fill-rule:nonzero;fill:rgb(0%,0%,0%);fill-opacity:1;stroke-width:1.693333;stroke-linecap:butt;stroke-linejoin:miter;stroke:rgb(0%,0%,0%);stroke-opacity:1;stroke-miterlimit:4;" d="M 1213.636235 1198.811297 L 1227.989434 1198.811297 L 1227.989434 1201.264993 L 1216.145277 1201.264993 L 1216.145277 1209.105751 L 1227.878741 1209.105751 L 1227.878741 1211.540998 L 1216.145277 1211.540998 L 1216.145277 1221.374231 L 1227.878741 1221.374231 L 1227.878741 1223.827927 L 1213.636235 1223.827927 Z M 1213.636235 1198.811297 " transform="matrix(0.211734,0,0,0.211734,-226.987774,-224.977734)"/>
<path style="fill-rule:nonzero;fill:rgb(0%,0%,0%);fill-opacity:1;stroke-width:1.693333;stroke-linecap:butt;stroke-linejoin:miter;stroke:rgb(0%,0%,0%);stroke-opacity:1;stroke-miterlimit:4;" d="M 1107.536943 1256.888252 L 1111.079121 1231.871622 L 1111.484996 1231.871622 L 1121.668756 1252.405183 L 1131.741824 1231.871622 L 1132.147699 1231.871622 L 1135.726774 1256.888252 L 1133.273078 1256.888252 L 1130.819382 1238.992875 L 1121.963938 1256.888252 L 1121.336677 1256.888252 L 1112.37054 1238.863733 L 1109.935293 1256.888252 Z M 1107.536943 1256.888252 " transform="matrix(0.211734,0,0,0.211734,-226.987774,-224.977734)"/>
<path style="fill-rule:nonzero;fill:rgb(100%,100%,100%);fill-opacity:1;stroke-width:1.693333;stroke-linecap:butt;stroke-linejoin:miter;stroke:rgb(100%,100%,100%);stroke-opacity:1;stroke-miterlimit:4;" d="M 1155.07961 1231.871622 L 1166.739278 1256.888252 L 1164.064196 1256.888252 L 1160.134592 1248.660069 L 1149.34202 1248.660069 L 1145.430865 1256.888252 L 1142.64509 1256.888252 L 1154.470798 1231.871622 Z M 1154.765979 1237.16644 L 1150.467399 1246.24327 L 1159.027662 1246.24327 Z M 1154.765979 1237.16644 " transform="matrix(0.211734,0,0,0.211734,-226.987774,-224.977734)"/>
<path style="fill-rule:nonzero;fill:rgb(0%,0%,0%);fill-opacity:1;stroke-width:1.693333;stroke-linecap:butt;stroke-linejoin:miter;stroke:rgb(0%,0%,0%);stroke-opacity:1;stroke-miterlimit:4;" d="M 1180.88954 1234.306869 L 1180.88954 1231.871622 L 1194.615478 1231.871622 L 1194.615478 1234.306869 L 1189.043928 1234.306869 L 1189.043928 1256.888252 L 1186.479539 1256.888252 L 1186.479539 1234.306869 Z M 1180.88954 1234.306869 " transform="matrix(0.211734,0,0,0.211734,-226.987774,-224.977734)"/>
<path style="fill-rule:nonzero;fill:rgb(100%,100%,100%);fill-opacity:1;stroke-width:1.693333;stroke-linecap:butt;stroke-linejoin:miter;stroke:rgb(100%,100%,100%);stroke-opacity:1;stroke-miterlimit:4;" d="M 1213.636235 1231.871622 L 1227.989434 1231.871622 L 1227.989434 1234.325318 L 1216.145277 1234.325318 L 1216.145277 1242.166076 L 1227.878741 1242.166076 L 1227.878741 1244.601323 L 1216.145277 1244.601323 L 1216.145277 1254.434556 L 1227.878741 1254.434556 L 1227.878741 1256.888252 L 1213.636235 1256.888252 Z M 1213.636235 1231.871622 " transform="matrix(0.211734,0,0,0.211734,-226.987774,-224.977734)"/>
<path style=" stroke:none;fill-rule:nonzero;fill:rgb(0%,0%,0%);fill-opacity:1;" d="M 31.257812 0.179688 C 31.257812 0.328125 31.257812 0.476562 31.257812 0.628906 C 31.109375 0.628906 30.957031 0.628906 30.808594 0.628906 C 30.808594 0.777344 30.808594 0.925781 30.808594 1.074219 C 30.957031 1.074219 31.109375 1.074219 31.257812 1.074219 C 31.257812 1.230469 31.257812 1.386719 31.257812 1.542969 L 31.089844 1.710938 C 30.945312 1.855469 30.910156 1.910156 30.863281 2.0625 C 30.832031 2.167969 30.808594 2.3125 30.808594 2.421875 C 30.808594 2.523438 30.804688 2.605469 30.796875 2.605469 C 30.785156 2.605469 30.6875 2.550781 30.578125 2.488281 C 30.28125 2.316406 30.078125 2.253906 29.78125 2.242188 C 29.472656 2.226562 29.296875 2.261719 29.042969 2.378906 C 28.578125 2.605469 28.273438 3.128906 28.355469 3.570312 C 28.417969 3.910156 28.625 4.214844 29.066406 4.636719 L 29.351562 4.910156 L 29.371094 5.527344 C 29.382812 6.058594 29.394531 6.15625 29.433594 6.214844 C 29.539062 6.367188 30.082031 6.5625 30.636719 6.648438 C 30.804688 6.671875 31.164062 6.683594 31.5 6.683594 C 31.835938 6.6875 32.195312 6.671875 32.363281 6.648438 C 32.917969 6.5625 33.460938 6.367188 33.566406 6.214844 C 33.605469 6.15625 33.617188 6.058594 33.628906 5.527344 L 33.648438 4.910156 L 33.933594 4.636719 C 34.375 4.214844 34.582031 3.910156 34.644531 3.570312 C 34.726562 3.128906 34.421875 2.605469 33.953125 2.378906 C 33.703125 2.261719 33.527344 2.226562 33.21875 2.242188 C 32.921875 2.253906 32.71875 2.316406 32.421875 2.488281 C 32.3125 2.550781 32.214844 2.605469 32.203125 2.605469 C 32.195312 2.605469 32.191406 2.523438 32.191406 2.421875 C 32.191406 2.3125 32.167969 2.167969 32.136719 2.0625 C 32.089844 1.910156 32.054688 1.855469 31.910156 1.710938 L 31.742188 1.542969 C 31.742188 1.386719 31.742188 1.230469 31.742188 1.074219 C 31.890625 1.074219 32.042969 1.074219 32.191406 1.074219 C 32.191406 0.925781 32.191406 0.777344 32.191406 0.628906 C 32.042969 0.628906 31.890625 0.628906 31.742188 0.628906 C 31.742188 0.476562 31.742188 0.328125 31.742188 0.179688 C 31.582031 0.179688 31.417969 0.179688 31.257812 0.179688 Z M 31.859375 2.035156 C 31.929688 2.171875 31.9375 2.21875 31.9375 2.417969 C 31.933594 2.597656 31.921875 2.679688 31.871094 2.816406 C 31.757812 3.097656 31.527344 3.578125 31.5 3.578125 C 31.472656 3.578125 31.242188 3.097656 31.128906 2.816406 C 31.078125 2.679688 31.0625 2.597656 31.0625 2.417969 C 31.0625 2.21875 31.070312 2.171875 31.140625 2.035156 C 31.335938 1.652344 31.703125 1.730469 31.859375 2.035156 Z M 31.402344 2.023438 C 31.226562 2.1875 31.253906 2.65625 31.457031 2.964844 C 31.472656 2.988281 31.488281 3.011719 31.5 3.019531 C 31.511719 3.011719 31.527344 2.988281 31.542969 2.964844 C 31.746094 2.65625 31.773438 2.1875 31.597656 2.023438 C 31.519531 1.957031 31.46875 1.96875 31.402344 2.023438 Z M 29.648438 2.449219 C 29.828125 2.449219 30.027344 2.476562 30.164062 2.523438 C 30.679688 2.707031 31.160156 3.269531 31.324219 3.882812 C 31.378906 4.089844 31.40625 4.617188 31.367188 4.644531 C 31.351562 4.652344 31.164062 4.671875 30.957031 4.6875 C 30.566406 4.710938 30.347656 4.738281 30.0625 4.800781 C 29.742188 4.871094 29.742188 4.871094 29.621094 4.792969 C 29.367188 4.632812 28.847656 4.132812 28.714844 3.921875 C 28.558594 3.671875 28.527344 3.328125 28.640625 3.070312 C 28.765625 2.792969 29.097656 2.539062 29.433594 2.46875 C 29.496094 2.457031 29.570312 2.449219 29.648438 2.449219 Z M 33.28125 2.449219 C 33.304688 2.449219 33.328125 2.449219 33.351562 2.449219 C 33.429688 2.453125 33.503906 2.457031 33.566406 2.46875 C 33.902344 2.539062 34.234375 2.792969 34.359375 3.070312 C 34.472656 3.328125 34.441406 3.671875 34.285156 3.921875 C 34.152344 4.132812 33.632812 4.632812 33.378906 4.792969 C 33.257812 4.871094 33.257812 4.871094 32.9375 4.800781 C 32.652344 4.738281 32.433594 4.710938 32.042969 4.6875 C 31.835938 4.671875 31.648438 4.652344 31.632812 4.644531 C 31.59375 4.617188 31.621094 4.089844 31.675781 3.882812 C 31.839844 3.269531 32.320312 2.707031 32.835938 2.523438 C 32.957031 2.480469 33.125 2.453125 33.28125 2.449219 Z M 29.730469 2.710938 C 29.710938 2.707031 29.691406 2.710938 29.671875 2.714844 C 29.308594 2.722656 28.984375 2.898438 28.863281 3.222656 C 28.785156 3.421875 28.792969 3.515625 28.890625 3.714844 C 28.957031 3.847656 29.046875 3.957031 29.339844 4.246094 C 29.542969 4.445312 29.722656 4.609375 29.738281 4.609375 C 29.753906 4.609375 29.910156 4.578125 30.085938 4.542969 C 30.34375 4.488281 30.992188 4.398438 31.117188 4.398438 C 31.214844 4.394531 31.09375 3.925781 30.898438 3.527344 C 30.78125 3.292969 30.714844 3.191406 30.601562 3.078125 C 30.355469 2.839844 30.03125 2.71875 29.730469 2.710938 Z M 33.269531 2.710938 C 32.96875 2.71875 32.644531 2.839844 32.398438 3.078125 C 32.285156 3.191406 32.21875 3.292969 32.101562 3.527344 C 31.90625 3.925781 31.785156 4.394531 31.882812 4.394531 C 32.007812 4.398438 32.65625 4.488281 32.914062 4.542969 C 33.089844 4.578125 33.246094 4.605469 33.261719 4.605469 C 33.277344 4.605469 33.457031 4.445312 33.660156 4.246094 C 33.953125 3.957031 34.042969 3.847656 34.109375 3.710938 C 34.207031 3.511719 34.214844 3.421875 34.136719 3.21875 C 34.015625 2.894531 33.691406 2.722656 33.328125 2.710938 C 33.308594 2.710938 33.289062 2.710938 33.269531 2.710938 Z M 31.320312 5.199219 C 31.382812 5.199219 31.441406 5.199219 31.5 5.199219 C 31.976562 5.195312 32.457031 5.210938 32.644531 5.246094 C 32.957031 5.300781 33.132812 5.359375 33.210938 5.429688 C 33.277344 5.492188 33.285156 5.53125 33.238281 5.574219 C 33.195312 5.617188 33.171875 5.617188 32.808594 5.542969 C 32.425781 5.460938 31.964844 5.421875 31.5 5.421875 C 31.035156 5.421875 30.574219 5.460938 30.191406 5.542969 C 29.828125 5.617188 29.804688 5.617188 29.761719 5.574219 C 29.714844 5.53125 29.722656 5.492188 29.789062 5.429688 C 29.867188 5.359375 30.042969 5.300781 30.355469 5.246094 C 30.519531 5.214844 30.910156 5.199219 31.320312 5.199219 Z M 31.5 5.695312 C 31.558594 5.695312 31.617188 5.695312 31.675781 5.699219 C 32.753906 5.753906 33.441406 5.953125 33.238281 6.15625 C 33.199219 6.195312 33.25 6.203125 32.84375 6.097656 C 32.382812 5.980469 32.066406 5.941406 31.5 5.941406 C 30.933594 5.941406 30.617188 5.980469 30.15625 6.097656 C 29.75 6.203125 29.800781 6.195312 29.761719 6.15625 C 29.558594 5.953125 30.242188 5.753906 31.324219 5.699219 C 31.382812 5.695312 31.441406 5.695312 31.5 5.695312 Z M 31.5 5.695312 "/>
<path style=" stroke:none;fill-rule:nonzero;fill:rgb(0%,0%,0%);fill-opacity:1;" d="M 24.523438 7.46875 C 24.253906 7.46875 24.035156 7.683594 24.035156 7.953125 C 24.035156 8.082031 24.085938 8.203125 24.167969 8.289062 C 24.097656 8.425781 24.03125 8.550781 23.984375 8.609375 C 23.914062 8.6875 23.855469 8.765625 23.816406 8.824219 C 24.40625 9.441406 24.847656 10.546875 24.816406 10.9375 C 24.566406 10.546875 23.507812 9.519531 23.253906 9.460938 C 22.863281 9.96875 22.652344 10.667969 22.753906 11.066406 C 22.886719 11.472656 23.144531 11.863281 23.441406 12.171875 C 23.230469 12.492188 23 12.671875 22.628906 12.808594 C 22.246094 12.953125 22.078125 13.039062 22.023438 13.125 C 21.980469 13.1875 21.917969 13.472656 21.917969 13.53125 C 21.921875 13.535156 27.097656 13.535156 27.082031 13.53125 C 27.082031 13.472656 27.019531 13.1875 26.980469 13.125 C 26.925781 13.039062 26.757812 12.953125 26.371094 12.808594 C 25.988281 12.667969 25.753906 12.480469 25.539062 12.140625 C 25.757812 11.90625 25.980469 11.636719 26.128906 11.386719 C 26.457031 10.726562 26.234375 9.980469 25.367188 8.972656 C 25.09375 8.660156 24.882812 8.378906 24.871094 8.351562 C 24.871094 8.351562 24.859375 8.324219 24.847656 8.308594 C 24.945312 8.21875 25.007812 8.09375 25.007812 7.953125 C 25.007812 7.683594 24.792969 7.46875 24.523438 7.46875 Z M 24.523438 7.46875 "/>
<path style=" stroke:none;fill-rule:nonzero;fill:rgb(0%,0%,0%);fill-opacity:1;" d="M 18.464844 0.917969 C 18.464844 0.917969 18.429688 1.046875 18.324219 1.101562 C 18.21875 1.160156 18.140625 1.144531 17.867188 1.113281 C 14.964844 1.054688 14.457031 3.992188 15.964844 5.488281 C 15.851562 5.558594 15.738281 5.617188 15.644531 5.648438 C 15.269531 5.804688 15.105469 5.898438 15.054688 5.988281 C 15.011719 6.054688 14.953125 6.359375 14.953125 6.421875 C 14.953125 6.421875 20.046875 6.421875 20.046875 6.421875 C 20.046875 6.359375 19.984375 6.054688 19.945312 5.988281 C 19.890625 5.898438 19.652344 5.804688 19.277344 5.648438 C 19.035156 5.53125 18.914062 5.429688 18.769531 5.273438 C 18.867188 5.113281 18.957031 4.921875 18.863281 4.765625 C 18.15625 4.671875 17.328125 4.3125 17.0625 3.640625 C 17.019531 3.535156 17.003906 3.445312 17.035156 3.324219 C 17.105469 3.175781 17.242188 3.273438 17.257812 3.359375 C 17.273438 3.492188 17.335938 3.625 17.421875 3.722656 C 17.546875 3.859375 17.59375 3.875 17.804688 3.890625 C 18.804688 3.960938 18.808594 3.941406 19.148438 4.234375 C 19.148438 4.234375 19.265625 4.359375 19.371094 4.351562 C 19.488281 4.3125 19.960938 3.996094 20.023438 3.851562 C 19.796875 3.164062 19.257812 2.382812 18.78125 1.757812 C 18.589844 1.570312 18.449219 1.582031 18.714844 1.472656 C 18.84375 1.371094 18.726562 1.207031 18.660156 1.109375 C 18.59375 1.011719 18.523438 0.9375 18.464844 0.917969 Z M 18.464844 0.917969 "/>
</g>
</svg>
