<?xml version="1.0" encoding="UTF-8"?>
<svg xmlns="http://www.w3.org/2000/svg" xmlns:xlink="http://www.w3.org/1999/xlink" width="42px" height="42px" viewBox="0 0 42 42" version="1.1">
<g id="surface1">
<path style=" stroke:none;fill-rule:evenodd;fill:rgb(0%,0%,0%);fill-opacity:1;" d="M 31.027344 24.207031 C 33.402344 24.207031 35.554688 25.078125 37.117188 26.480469 C 38.675781 27.886719 39.632812 29.820312 39.632812 31.972656 C 39.632812 33.539062 39.117188 35 38.234375 36.21875 L 41.957031 39.882812 L 39.386719 42 L 35.796875 38.433594 C 34.433594 39.253906 32.792969 39.734375 31.03125 39.734375 C 28.660156 39.734375 26.507812 38.863281 24.949219 37.460938 C 23.390625 36.050781 22.433594 34.117188 22.433594 31.972656 C 22.433594 29.828125 23.398438 27.886719 24.949219 26.480469 C 26.503906 25.070312 28.652344 24.207031 31.027344 24.207031 Z M 2.234375 13.964844 L 2.234375 30.0625 C 2.234375 30.152344 2.269531 30.238281 2.335938 30.296875 C 2.398438 30.355469 2.492188 30.390625 2.597656 30.390625 L 18.703125 30.390625 C 19.816406 30.496094 19.847656 32.226562 18.703125 32.378906 L 8.394531 32.378906 L 8.394531 36.070312 C 8.394531 36.164062 8.433594 36.246094 8.5 36.304688 C 8.566406 36.363281 8.65625 36.398438 8.761719 36.398438 L 18.707031 36.398438 C 19.511719 36.480469 19.773438 38.128906 18.707031 38.382812 L 8.773438 38.382812 C 8.070312 38.382812 7.417969 38.125 6.964844 37.699219 C 6.492188 37.277344 6.207031 36.703125 6.207031 36.066406 L 6.207031 32.375 L 2.609375 32.375 C 1.902344 32.375 1.253906 32.117188 0.796875 31.691406 C 0.328125 31.265625 0.0390625 30.695312 0.0390625 30.058594 L 0.0390625 2.316406 C 0.0429688 1.679688 0.332031 1.09375 0.800781 0.683594 C 1.269531 0.257812 1.90625 0 2.613281 0 L 29.625 0 C 30.328125 0 30.980469 0.261719 31.433594 0.679688 C 31.902344 1.105469 32.1875 1.679688 32.1875 2.3125 L 32.1875 6.003906 L 35.785156 6.003906 C 36.492188 6.003906 37.140625 6.265625 37.597656 6.6875 C 38.066406 7.109375 38.355469 7.6875 38.355469 8.320312 L 38.355469 20.976562 C 38.277344 21.699219 36.304688 21.710938 36.136719 20.976562 L 36.136719 8.328125 C 36.136719 8.230469 36.101562 8.148438 36.035156 8.089844 C 35.972656 8.03125 35.882812 7.996094 35.773438 7.996094 L 32.175781 7.996094 L 32.175781 20.980469 C 31.984375 21.636719 30.34375 21.734375 29.976562 20.980469 L 29.976562 13.964844 Z M 2.234375 12.136719 L 29.976562 12.136719 L 29.976562 2.316406 C 29.976562 2.222656 29.9375 2.140625 29.871094 2.082031 C 29.804688 2.023438 29.714844 1.984375 29.609375 1.984375 L 2.597656 1.984375 C 2.492188 1.984375 2.398438 2.019531 2.335938 2.082031 C 2.269531 2.140625 2.234375 2.222656 2.234375 2.316406 Z M 14.800781 7.363281 L 16.585938 7.363281 C 16.683594 7.363281 16.746094 7.421875 16.746094 7.507812 L 16.746094 11.082031 C 16.746094 11.167969 16.683594 11.226562 16.585938 11.226562 L 14.800781 11.226562 C 14.707031 11.226562 14.640625 11.167969 14.640625 11.082031 L 14.640625 7.503906 C 14.640625 7.453125 14.707031 7.363281 14.800781 7.363281 Z M 23.609375 7.363281 L 25.398438 7.363281 C 25.492188 7.363281 25.554688 7.421875 25.554688 7.507812 L 25.554688 11.082031 C 25.554688 11.167969 25.492188 11.226562 25.398438 11.226562 L 23.609375 11.226562 C 23.515625 11.226562 23.449219 11.167969 23.449219 11.082031 L 23.449219 7.503906 C 23.449219 7.453125 23.515625 7.363281 23.609375 7.363281 Z M 19.203125 4.335938 L 20.992188 4.335938 C 21.089844 4.335938 21.152344 4.394531 21.152344 4.480469 L 21.152344 11.109375 C 21.152344 11.195312 21.085938 11.25 20.992188 11.25 L 19.203125 11.25 C 19.109375 11.25 19.046875 11.195312 19.046875 11.109375 L 19.046875 4.480469 C 19.046875 4.394531 19.109375 4.335938 19.203125 4.335938 Z M 5.992188 5.429688 L 7.78125 5.429688 C 7.875 5.429688 7.941406 5.488281 7.941406 5.574219 L 7.941406 11.109375 C 7.941406 11.195312 7.875 11.25 7.78125 11.25 L 5.992188 11.25 C 5.898438 11.25 5.835938 11.195312 5.835938 11.109375 L 5.835938 5.578125 C 5.804688 5.488281 5.898438 5.429688 5.992188 5.429688 Z M 10.394531 4.335938 L 12.183594 4.335938 C 12.277344 4.335938 12.34375 4.394531 12.34375 4.480469 L 12.34375 11.109375 C 12.34375 11.195312 12.277344 11.25 12.183594 11.25 L 10.394531 11.25 C 10.300781 11.25 10.234375 11.195312 10.234375 11.109375 L 10.234375 4.480469 C 10.234375 4.394531 10.300781 4.335938 10.394531 4.335938 Z M 16.210938 22.960938 L 21.191406 23.039062 C 21.191406 24.652344 20.316406 26.132812 18.847656 27.03125 Z M 15.941406 21.585938 L 15.882812 16.351562 L 15.882812 16.007812 L 16.265625 16.035156 C 16.734375 16.0625 17.203125 16.140625 17.644531 16.246094 C 18.082031 16.351562 18.492188 16.507812 18.90625 16.695312 C 20.929688 17.648438 22.332031 19.550781 22.449219 21.71875 L 22.480469 22.0625 L 22.097656 22.0625 L 16.328125 21.90625 L 16.003906 21.90625 Z M 16.582031 16.664062 L 16.640625 21.269531 L 21.710938 21.402344 C 21.507812 19.605469 20.277344 18.042969 18.574219 17.226562 C 18.222656 17.066406 17.84375 16.933594 17.460938 16.828125 C 17.140625 16.773438 16.875 16.71875 16.582031 16.664062 Z M 14.542969 22.492188 L 17.386719 26.9375 C 16.507812 27.386719 15.542969 27.625 14.542969 27.625 C 11.40625 27.625 8.855469 25.324219 8.855469 22.492188 C 8.855469 19.738281 11.261719 17.464844 14.308594 17.359375 Z M 35.605469 27.839844 C 34.433594 26.78125 32.816406 26.125 31.027344 26.125 C 29.246094 26.125 27.625 26.78125 26.453125 27.839844 C 25.285156 28.894531 24.554688 30.355469 24.554688 31.96875 C 24.554688 33.578125 25.285156 35.039062 26.453125 36.097656 C 27.625 37.152344 29.242188 37.808594 31.027344 37.808594 C 32.8125 37.808594 34.433594 37.152344 35.605469 36.097656 C 36.773438 35.039062 37.503906 33.578125 37.503906 31.96875 C 37.503906 30.359375 36.773438 28.894531 35.605469 27.839844 Z M 35.605469 27.839844 "/>
</g>
</svg>
