<?xml version="1.0" encoding="UTF-8"?>
<svg xmlns="http://www.w3.org/2000/svg" xmlns:xlink="http://www.w3.org/1999/xlink" width="42px" height="42px" viewBox="0 0 42 42" version="1.1">
<g id="surface1">
<path style=" stroke:none;fill-rule:evenodd;fill:rgb(0%,0%,0%);fill-opacity:1;" d="M 21 0.0664062 C 23.191406 0.0664062 25.054688 2.550781 26.296875 6.5625 C 26.726562 7.957031 27.097656 9.550781 27.386719 11.289062 C 29.25 10.640625 31.003906 10.128906 32.589844 9.757812 C 37.164062 8.695312 40.542969 8.871094 41.644531 10.535156 C 42.738281 12.203125 41.21875 14.859375 37.882812 17.808594 C 36.726562 18.828125 35.339844 19.90625 33.765625 21 C 34.394531 21.4375 34.996094 21.871094 35.5625 22.300781 C 35.046875 22.617188 34.625 23.039062 34.328125 23.527344 C 33.675781 23.035156 32.976562 22.53125 32.242188 22.027344 C 32.089844 22.125 31.933594 22.222656 31.78125 22.324219 C 31.445312 24.433594 30.328125 26.320312 28.695312 27.757812 L 28.601562 27.832031 C 28.3125 28.078125 28.015625 28.308594 27.703125 28.523438 C 27.683594 28.691406 27.660156 28.863281 27.636719 29.035156 C 29.585938 29.730469 31.417969 30.273438 33.0625 30.65625 C 36.792969 31.519531 39.402344 31.585938 40.023438 30.644531 C 40.355469 30.144531 40.121094 29.359375 39.425781 28.371094 C 39.988281 28.15625 40.488281 27.828125 40.882812 27.421875 C 42.003906 29.035156 42.316406 30.433594 41.644531 31.460938 C 40.546875 33.128906 37.171875 33.304688 32.59375 32.242188 C 31.007812 31.875 29.253906 31.359375 27.386719 30.710938 C 27.097656 32.449219 26.726562 34.042969 26.296875 35.4375 C 25.054688 39.449219 23.191406 41.933594 21 41.933594 C 18.808594 41.933594 16.945312 39.449219 15.703125 35.4375 C 15.273438 34.042969 14.902344 32.449219 14.613281 30.710938 C 13.9375 30.945312 13.277344 31.164062 12.636719 31.359375 C 12.585938 30.792969 12.382812 30.265625 12.058594 29.804688 C 12.804688 29.570312 13.574219 29.316406 14.363281 29.035156 C 14.339844 28.867188 14.320312 28.695312 14.296875 28.527344 C 13.953125 28.289062 13.625 28.03125 13.3125 27.757812 L 13.304688 27.753906 C 11.671875 26.320312 10.554688 24.429688 10.21875 22.320312 C 10.066406 22.222656 9.910156 22.121094 9.757812 22.023438 C 8.09375 23.160156 6.640625 24.28125 5.441406 25.339844 C 2.714844 27.753906 1.347656 29.707031 1.96875 30.652344 C 2.3125 31.175781 3.273438 31.386719 4.703125 31.324219 C 4.691406 31.425781 4.6875 31.53125 4.6875 31.636719 C 4.6875 32.082031 4.785156 32.507812 4.957031 32.902344 C 2.675781 32.988281 1.050781 32.53125 0.351562 31.46875 C -0.742188 29.800781 0.777344 27.144531 4.113281 24.195312 C 5.273438 23.171875 6.65625 22.097656 8.230469 21.003906 C 6.660156 19.910156 5.273438 18.832031 4.113281 17.8125 C 0.777344 14.863281 -0.742188 12.207031 0.351562 10.539062 C 1.453125 8.875 4.828125 8.695312 9.40625 9.761719 C 10.992188 10.128906 12.746094 10.640625 14.613281 11.292969 C 14.71875 10.664062 14.835938 10.054688 14.957031 9.46875 C 15.496094 9.707031 16.101562 9.839844 16.746094 9.839844 L 16.78125 9.839844 C 16.636719 10.507812 16.511719 11.214844 16.394531 11.945312 C 16.570312 12.007812 16.738281 12.078125 16.914062 12.144531 C 18.175781 11.695312 19.550781 11.445312 20.996094 11.445312 C 22.441406 11.445312 23.820312 11.695312 25.082031 12.140625 C 25.253906 12.074219 25.425781 12.007812 25.597656 11.945312 C 25.308594 10.109375 24.929688 8.441406 24.484375 7 C 23.476562 3.738281 22.234375 1.714844 20.996094 1.714844 C 20.308594 1.714844 19.617188 2.339844 18.96875 3.449219 C 18.46875 3.152344 17.890625 2.953125 17.261719 2.882812 C 18.324219 1.085938 19.589844 0.0664062 21 0.0664062 Z M 21 15.46875 C 23.738281 15.46875 25.960938 16.378906 25.960938 17.503906 C 25.960938 18.632812 23.738281 19.542969 21 19.542969 C 18.261719 19.542969 16.039062 18.628906 16.039062 17.503906 C 16.039062 16.378906 18.261719 15.46875 21 15.46875 Z M 16.039062 23.113281 L 16.039062 24.675781 C 16.921875 27.429688 25.640625 26.898438 25.960938 24.535156 L 25.960938 22.972656 C 25.527344 25.566406 16.734375 25.753906 16.039062 23.113281 Z M 16.015625 18.484375 L 16.015625 20.015625 C 16.898438 22.703125 25.667969 22.34375 25.988281 20.035156 L 25.988281 18.507812 C 25.550781 21.039062 16.710938 21.066406 16.015625 18.484375 Z M 16.015625 20.738281 L 16.015625 22.300781 C 16.898438 25.054688 25.667969 24.683594 25.988281 22.320312 L 25.988281 20.757812 C 25.550781 23.351562 16.710938 23.378906 16.015625 20.738281 Z M 21 12.8125 C 26.148438 12.8125 30.324219 16.480469 30.324219 21 C 30.324219 25.519531 26.148438 29.1875 21 29.1875 C 15.851562 29.1875 11.675781 25.519531 11.675781 21 C 11.675781 16.480469 15.851562 12.8125 21 12.8125 Z M 27.703125 13.46875 C 28.050781 13.707031 28.382812 13.96875 28.695312 14.242188 C 30.328125 15.679688 31.445312 17.570312 31.78125 19.679688 C 31.933594 19.777344 32.089844 19.875 32.242188 19.976562 C 33.90625 18.839844 35.359375 17.71875 36.558594 16.660156 C 39.277344 14.257812 40.644531 12.300781 40.027344 11.359375 C 39.40625 10.417969 36.796875 10.480469 33.066406 11.347656 C 31.421875 11.730469 29.589844 12.273438 27.640625 12.972656 C 27.660156 13.132812 27.683594 13.304688 27.703125 13.46875 Z M 25.070312 29.863281 C 23.8125 30.3125 22.441406 30.558594 21.003906 30.558594 C 19.5625 30.558594 18.191406 30.3125 16.933594 29.863281 C 16.753906 29.929688 16.578125 30 16.398438 30.066406 C 16.6875 31.902344 17.066406 33.570312 17.511719 35.011719 C 18.519531 38.273438 19.761719 40.292969 21.003906 40.292969 C 22.242188 40.292969 23.488281 38.273438 24.492188 35.011719 C 24.933594 33.570312 25.3125 31.898438 25.601562 30.066406 C 25.421875 30 25.246094 29.933594 25.070312 29.863281 Z M 10.222656 19.671875 C 10.558594 17.566406 11.675781 15.675781 13.308594 14.242188 L 13.402344 14.167969 C 13.6875 13.925781 13.984375 13.695312 14.292969 13.480469 C 14.3125 13.308594 14.335938 13.140625 14.359375 12.96875 C 12.40625 12.273438 10.578125 11.730469 8.933594 11.34375 C 5.203125 10.480469 2.59375 10.414062 1.972656 11.355469 C 1.347656 12.296875 2.714844 14.253906 5.4375 16.65625 C 6.636719 17.714844 8.089844 18.835938 9.753906 19.972656 C 9.910156 19.871094 10.066406 19.773438 10.222656 19.671875 Z M 37.5625 22.808594 C 38.984375 22.808594 40.140625 23.824219 40.140625 25.074219 C 40.140625 26.324219 38.984375 27.339844 37.5625 27.339844 C 36.136719 27.339844 34.980469 26.324219 34.980469 25.074219 C 34.980469 23.824219 36.132812 22.808594 37.5625 22.808594 Z M 8.671875 29.300781 C 10.097656 29.300781 11.253906 30.316406 11.253906 31.566406 C 11.253906 32.816406 10.097656 33.832031 8.671875 33.832031 C 7.25 33.832031 6.09375 32.816406 6.09375 31.566406 C 6.09375 30.316406 7.25 29.300781 8.671875 29.300781 Z M 16.742188 4.074219 C 18.167969 4.074219 19.324219 5.089844 19.324219 6.339844 C 19.324219 7.589844 18.167969 8.605469 16.742188 8.605469 C 15.320312 8.605469 14.164062 7.589844 14.164062 6.339844 C 14.164062 5.089844 15.320312 4.074219 16.742188 4.074219 Z M 16.742188 4.074219 "/>
</g>
</svg>
